<svg xmlns="http://www.w3.org/2000/svg" width="512" height="512" viewBox="0 0 512 512">
  <defs>
    <linearGradient id="bg" x1="0" y1="0" x2="1" y2="1">
      <stop offset="0" stop-color="#2f7a58"/>
      <stop offset="1" stop-color="#1f5a40"/>
    </linearGradient>
  </defs>
  <rect width="512" height="512" rx="116" fill="url(#bg)"/>
  <g transform="translate(256 262) scale(16.5) translate(-12 -12)" fill="#ffffff">
    <path d="M12 21c4.5-3.2 8-6.6 8-10.6C20 6.4 17.3 4 14.5 4 13.2 4 12.4 4.6 12 5.2 11.6 4.6 10.8 4 9.5 4 6.7 4 4 6.4 4 10.4c0 4 3.5 7.4 8 10.6Z" opacity="0.4"/>
    <path d="M7 13.5c2.8 0 6.2-1.4 8-4.5 0 5-3.4 8-8 8v-3.5Z"/>
  </g>
</svg>
